<svg id="Capa_1" data-name="Capa 1" xmlns="http://www.w3.org/2000/svg" viewBox="0 0 76 76"><defs><style>.cls-1{fill:#dc3545;}</style></defs><path class="cls-1" d="M67.48,51.48H13.14L12.07,11.23A3.42,3.42,0,0,0,8.65,7.79h0a3.59,3.59,0,0,0-3.43,3.44l-1,41.31A8.43,8.43,0,0,0,0,59.76v.36a8.31,8.31,0,0,0,7.1,8.17v4a1.2,1.2,0,0,0,1.19,1.18h7.93a1.18,1.18,0,0,0,1.18-1.18h0V68.4H58.6v3.91a1.18,1.18,0,0,0,1.18,1.18h7.93a1.19,1.19,0,0,0,1.19-1.17h0V68.4A8.29,8.29,0,0,0,76,60.24v-.36A8.62,8.62,0,0,0,67.48,51.48ZM7.58,11.34a1.15,1.15,0,0,1,1.06-1.18,1.08,1.08,0,0,1,1.07,1.1v.08l1.06,40.14H8.29c-.6,0-1.19.11-1.66.11ZM15,71.13H9.35V68.4H15Zm45.7,0V68.4h5.68v2.73Zm12.78-11a6.06,6.06,0,0,1-6,6H8.29a6.06,6.06,0,0,1-6-6v-.36a6.06,6.06,0,0,1,6-6H67.48a6.06,6.06,0,0,1,6,6Z"/><path class="cls-1" d="M12.07,55.26A4.74,4.74,0,1,0,16.81,60v0a4.67,4.67,0,0,0-4.64-4.72Zm0,7.11a2.5,2.5,0,0,1,0-5h0a2.42,2.42,0,0,1,2.49,2.36v.13A2.59,2.59,0,0,1,12.07,62.37Zm56.35-3.56H64.64a1.19,1.19,0,0,0-.22,2.37h4A1.19,1.19,0,0,0,69.61,60v0a1.14,1.14,0,0,0-1.09-1.18Zm-12.07,0H52.56a1.19,1.19,0,0,0-1.08,1.29,1.21,1.21,0,0,0,1.08,1.08h3.79A1.18,1.18,0,0,0,57.53,60v0a1.13,1.13,0,0,0-1.07-1.18Zm-12.08,0H40.49a1.19,1.19,0,0,0-.22,2.37h4A1.19,1.19,0,0,0,45.46,60v0a1.14,1.14,0,0,0-1.09-1.18ZM32,23.77a1.14,1.14,0,0,0,0,1.62l0,0a1.14,1.14,0,0,0,1.61,0l0,0a9.28,9.28,0,0,1,13,0,1.14,1.14,0,0,0,1.66,0,1.15,1.15,0,0,0,0-1.63l0,0A11.59,11.59,0,0,0,32,23.77Zm22.26-4.61a1.34,1.34,0,0,0,.83-.36,1.15,1.15,0,0,0,0-1.62l0,0a21.06,21.06,0,0,0-29.72,0,1.15,1.15,0,0,0-.23,1.63,1.17,1.17,0,0,0,1.64.23A1.1,1.1,0,0,0,27,18.8a18.71,18.71,0,0,1,26.47-.05l.05.05a.72.72,0,0,0,.7.36Z"/><path class="cls-1" d="M20.83,12.88a27.11,27.11,0,0,1,19.3-8,27.46,27.46,0,0,1,19.3,7.94,1.16,1.16,0,0,0,1.63,0l0,0a1.15,1.15,0,0,0,.05-1.62l-.05,0a29.43,29.43,0,0,0-41.63,0l0,0a1.14,1.14,0,0,0,0,1.62l0,0a1,1,0,0,0,1.41.06Z"/></svg>