<svg id="Capa_1" data-name="Capa 1" xmlns="http://www.w3.org/2000/svg" viewBox="0 0 76 76"><defs><style>.cls-1{fill:#fff;}</style></defs><path class="cls-1" d="M67.48,51.5H13.14L12.07,11.25A3.43,3.43,0,0,0,8.64,7.81a3.6,3.6,0,0,0-3.43,3.44l-1,41.31A8.42,8.42,0,0,0,0,59.78v.36a8.3,8.3,0,0,0,7.1,8.17v4a1.19,1.19,0,0,0,1.19,1.18h7.93a1.18,1.18,0,0,0,1.18-1.18V68.42H58.6v3.91a1.18,1.18,0,0,0,1.18,1.18h7.93a1.18,1.18,0,0,0,1.19-1.18V68.42A8.28,8.28,0,0,0,76,60.26V59.9A8.62,8.62,0,0,0,67.48,51.5ZM7.58,11.36a1.16,1.16,0,0,1,1.06-1.18,1.09,1.09,0,0,1,1.07,1.18L10.77,51.5H8.29c-.6,0-1.19.11-1.66.11ZM15,71.15H9.35V68.42H15Zm45.7,0V68.42h5.68v2.73Zm12.78-11a6.06,6.06,0,0,1-6,6H8.29a6.06,6.06,0,0,1-6-6v-.36a6.07,6.07,0,0,1,6-6H67.48a6.06,6.06,0,0,1,6,6Z"/><path class="cls-1" d="M12.07,55.28A4.74,4.74,0,1,0,16.81,60,4.68,4.68,0,0,0,12.07,55.28Zm0,7.11a2.49,2.49,0,0,1,0-5,2.43,2.43,0,0,1,2.49,2.49A2.58,2.58,0,0,1,12.07,62.39Zm56.35-3.56H64.64a1.19,1.19,0,1,0,0,2.37h3.78A1.18,1.18,0,0,0,69.61,60,1.13,1.13,0,0,0,68.42,58.83Zm-12.07,0H52.56a1.19,1.19,0,0,0,0,2.37h3.79A1.18,1.18,0,0,0,57.53,60,1.12,1.12,0,0,0,56.35,58.83Zm-12.08,0H40.49a1.19,1.19,0,1,0,0,2.37h3.78A1.18,1.18,0,0,0,45.46,60,1.13,1.13,0,0,0,44.27,58.83ZM32,23.79a1.15,1.15,0,0,0,0,1.66,1.14,1.14,0,0,0,1.66,0,9.29,9.29,0,0,1,13,0,1.08,1.08,0,0,0,.83.36,1.07,1.07,0,0,0,.83-.36,1.15,1.15,0,0,0,0-1.66A11.59,11.59,0,0,0,32,23.79Zm22.26-4.61a1.29,1.29,0,0,0,.83-.36,1.14,1.14,0,0,0,0-1.65,21.08,21.08,0,0,0-29.72,0A1.17,1.17,0,1,0,27,18.82a18.72,18.72,0,0,1,26.52,0A.71.71,0,0,0,54.22,19.18Z"/><path class="cls-1" d="M20.83,12.9a27.16,27.16,0,0,1,19.3-8,27.51,27.51,0,0,1,19.3,7.94,1.15,1.15,0,0,0,1.65,0,1.14,1.14,0,0,0,0-1.66,29.44,29.44,0,0,0-41.67,0,1.15,1.15,0,0,0,0,1.66A1,1,0,0,0,20.83,12.9Z"/></svg>