<svg id="Capa_1" data-name="Capa 1" xmlns="http://www.w3.org/2000/svg" viewBox="0 0 76 76"><defs><style>.cls-1{fill:#fff;}</style></defs><path class="cls-1" d="M69.87,3.68H6.13A6.2,6.2,0,0,0,0,9.93V50.14a6.2,6.2,0,0,0,6.13,6.25H30.65v3.67H15.94a3.68,3.68,0,1,0,0,7.36h32a6.15,6.15,0,0,0,6,4.9h7.35a6.14,6.14,0,0,0,6.13-6.13v-9.8h2.45A6.2,6.2,0,0,0,76,50.14V9.93a6.2,6.2,0,0,0-6.13-6.25ZM33.1,56.39h9.8v3.67H33.1Zm14.71,0v3.67H45.35V56.39Zm-33.1,7.35a1.23,1.23,0,0,1,1.23-1.22H47.81V65H15.94A1.23,1.23,0,0,1,14.71,63.74ZM65,66.19a3.68,3.68,0,0,1-3.68,3.68H53.94a3.68,3.68,0,0,1-3.68-3.68V38a3.68,3.68,0,0,1,3.68-3.68h7.35A3.68,3.68,0,0,1,65,38ZM61.29,31.87H53.94A6.14,6.14,0,0,0,47.81,38V49H8.58a1.27,1.27,0,0,1-1.23-1.3V12.33A1.28,1.28,0,0,1,8.58,11H67.42a1.28,1.28,0,0,1,1.23,1.3v35.4A1.27,1.27,0,0,1,67.42,49V38A6.14,6.14,0,0,0,61.29,31.87ZM73.55,50.14a3.75,3.75,0,0,1-3.68,3.8H67.42V51.48a3.72,3.72,0,0,0,3.68-3.75V12.33a3.72,3.72,0,0,0-3.68-3.75H8.58A3.72,3.72,0,0,0,4.9,12.33v35.4a3.72,3.72,0,0,0,3.68,3.75H47.81v2.46H6.13a3.75,3.75,0,0,1-3.68-3.8V9.93a3.74,3.74,0,0,1,3.68-3.8H69.87a3.74,3.74,0,0,1,3.68,3.8Z"/><path class="cls-1" d="M57.61,49a6.13,6.13,0,1,0,6.13,6.13A6.14,6.14,0,0,0,57.61,49Zm0,9.81a3.68,3.68,0,1,1,3.68-3.68A3.68,3.68,0,0,1,57.61,58.84Z"/><path class="cls-1" d="M51.48,63.74h4.91v2.45H51.48Z"/><path class="cls-1" d="M62.52,62.52H60.06v1.22H58.84v2.45h1.22v1.23h2.46V66.19h1.22V63.74H62.52Z"/><path class="cls-1" d="M52.71,36.77h2.45v2.46H52.71Z"/><path class="cls-1" d="M52.71,40.45h2.45V42.9H52.71Z"/><path class="cls-1" d="M56.39,40.45h2.45V42.9H56.39Z"/><path class="cls-1" d="M60.06,40.45h2.46V42.9H60.06Z"/><path class="cls-1" d="M52.71,44.13h2.45v2.45H52.71Z"/><path class="cls-1" d="M56.39,44.13h2.45v2.45H56.39Z"/><path class="cls-1" d="M60.06,44.13h2.46v2.45H60.06Z"/><path class="cls-1" d="M56.39,36.77h2.45v2.46H56.39Z"/><path class="cls-1" d="M60.06,36.77h2.46v2.46H60.06Z"/></svg>