<svg id="Capa_1" data-name="Capa 1" xmlns="http://www.w3.org/2000/svg" viewBox="0 0 76 76"><defs><style>.cls-1{fill:#fff;}</style></defs><path class="cls-1" d="M65.15,53.75,51,47.72a1.48,1.48,0,0,0-1.2,0,11.59,11.59,0,0,0-5.59,5.59,33.3,33.3,0,0,1-21-20.95,11.76,11.76,0,0,0,5.61-5.57,1.48,1.48,0,0,0,0-1.2L22.79,11.4a1.55,1.55,0,0,0-.93-.84A11.33,11.33,0,0,0,18.25,10,11.76,11.76,0,0,0,6.51,21.71a48,48,0,0,0,47,48.3c.44,0,.92,0,1.36,0s.92,0,1.44,0a11.72,11.72,0,0,0,10.3-11.65A11.32,11.32,0,0,0,66,54.8a1.48,1.48,0,0,0-.86-1ZM56,67.09c-.38,0-.76,0-1.15,0s-.78,0-1.23,0A45.14,45.14,0,0,1,9.43,21.73a8.81,8.81,0,0,1,10.93-8.56l5.52,13a8.85,8.85,0,0,1-4.92,4A1.46,1.46,0,0,0,20,31.92,36.19,36.19,0,0,0,44.66,56.54a1.44,1.44,0,0,0,1.8-.95,8.73,8.73,0,0,1,4-4.9l12.88,5.5a8,8,0,0,1,.27,2.17A8.78,8.78,0,0,1,56,67.09Z"/><path class="cls-1" d="M41,6a1.46,1.46,0,0,0,0,2.92A25.6,25.6,0,0,1,66.56,34.45a1.47,1.47,0,1,0,2.93,0A28.52,28.52,0,0,0,41,6Z"/><path class="cls-1" d="M41,17.67A16.8,16.8,0,0,1,57.78,34.45a1.47,1.47,0,1,0,2.93,0A19.73,19.73,0,0,0,41,14.74a1.47,1.47,0,0,0,0,2.93Z"/><path class="cls-1" d="M41,26.45a8,8,0,0,1,8,8,1.47,1.47,0,1,0,2.93,0A10.92,10.92,0,0,0,41,23.53a1.46,1.46,0,0,0,0,2.92Z"/></svg>